<svg id="Filled_expand" height="512" viewBox="0 0 512 512" width="512" xmlns="http://www.w3.org/2000/svg" data-name="Filled expand"><g id="_20_copy_5" data-name="20 copy 5"><g><g><path d="m24 468v-136.528a40 40 0 0 1 25.641-37.334l78.359-30.138h80l78.359 30.138a40 40 0 0 1 25.641 37.334v156.528h-268a20 20 0 0 1 -20-20z" fill="#666"/><g><path d="m216 264-48 32-48-32 16-48h64z" fill="#ffd4cf"/><path d="m120 264 48 32-56 24z" fill="#faa231"/><path d="m216 264-48 32 64 24z" fill="#faa231"/><path d="m216 264 56 48-40 16 16 32-48 72h-16z" fill="#999"/><path d="m120 264-56 48 40 16-16 32 48 72h16z" fill="#999"/><path d="m205.056 231.169-5.056-15.169h-64l-5.111 15.333 20.953 10.477a36.186 36.186 0 0 0 16.1 3.8 36.173 36.173 0 0 0 16.264-3.882z" fill="#fbb8b0"/></g><path d="m238 120h-6v-40h-128v40h-6a10 10 0 0 0 -10 10v20a10 10 0 0 0 10 10h6v21.459a30 30 0 0 0 16.584 26.833l38.416 19.208a20 20 0 0 0 17.979-.045l38.575-19.534a30 30 0 0 0 16.446-26.765v-21.156h6a10 10 0 0 0 10-10v-20a10 10 0 0 0 -10-10z" fill="#ffd4cf"/><g fill="#ae7069"><path d="m128 128h16v16h-16z"/><path d="m192 128h16v16h-16z"/></g><path d="m168 198c-13.458 0-24-8.785-24-20h16c0 1.41 3.037 4 8 4s8-2.59 8-4h16c0 11.215-10.542 20-24 20z" fill="#ae7069"/><path d="m256 456h232a0 0 0 0 1 0 0v12a20 20 0 0 1 -20 20h-212a0 0 0 0 1 0 0v-32a0 0 0 0 1 0 0z" fill="#666"/><path d="m344 456h-80l-8-88v-56h8v-8h80v8h8v56z" fill="#f2f2f2"/><path d="m240 432h-40v56h96a56 56 0 0 0 -56-56z" fill="#ffd4cf"/><path d="m290 224h28a10 10 0 0 1 10 10v38a0 0 0 0 1 0 0h-48a0 0 0 0 1 0 0v-38a10 10 0 0 1 10-10z" fill="#f2f2f2"/><path d="m382.868 456h-45.736a10 10 0 0 1 -9.959-9.1l-7.173-78.9h80l-7.173 78.9a10 10 0 0 1 -9.959 9.1z" fill="#faa231"/><path d="m352 400h16v56h-16z" fill="#fa7d29"/><path d="m176 24h36a20 20 0 0 1 20 20v44a0 0 0 0 1 0 0h-56a0 0 0 0 1 0 0v-64a0 0 0 0 1 0 0z" fill="#fa7d29"/><path d="m154.239 104h-48.239a10 10 0 0 1 -10-10v-40a30 30 0 0 1 30-30h82l-15.448 51.494a40 40 0 0 1 -38.313 28.506z" fill="#faa231"/><path d="m160 328h16v16h-16z" fill="#ccc"/><path d="m160 368h16v16h-16z" fill="#ccc"/><path d="m488 312v-16h-112v16l48 54.857v65.143h-4a20 20 0 0 0 -20 20v4h64v-4a20 20 0 0 0 -20-20h-4v-65.143z" fill="#f2f2f2"/><path d="m474 328h-84l42 48z" fill="#fa7d29"/><circle cx="464" cy="288" fill="#faa231" r="16"/><path d="m318.586 264h-29.172a30 30 0 0 0 -29.592 25.068l-3.822 22.932h96l-3.822-22.932a30 30 0 0 0 -29.592-25.068z" fill="#e6e6e6"/></g><g><path d="m128 128h16v16h-16z"/><path d="m192 128h16v16h-16z"/><path d="m192 178h-16c0 1.41-3.037 4-8 4s-8-2.59-8-4h-16c0 11.215 10.542 20 24 20s24-8.785 24-20z"/><path d="m160 328h16v16h-16z"/><path d="m160 368h16v16h-16z"/><path d="m494.021 317.268a8 8 0 0 0 1.979-5.268v-16a8 8 0 0 0 -8-8h-1.371a24.006 24.006 0 0 0 -13.4-30.154 16.026 16.026 0 0 1 14.771-9.846v-16a32.055 32.055 0 0 0 -31.255 25.121 24.007 24.007 0 0 0 -15.374 30.879h-65.371a8 8 0 0 0 -8 8v16a8 8 0 0 0 1.979 5.268l54.021 61.737v45h-4a27.87 27.87 0 0 0 -17.627 6.26l5.594-61.535a8 8 0 0 0 -7.967-8.73h-40v-48c0-.029 0-.059 0-.088s0-.085 0-.127v-.062c0-.053 0-.105-.007-.158v-.033c0-.063-.008-.127-.013-.19v-.008q-.033-.394-.1-.777l-3.8-22.8a37.881 37.881 0 0 0 -20.08-27.568v-26.189a18.021 18.021 0 0 0 -18-18h-28a18.021 18.021 0 0 0 -18 18v26.189a37.855 37.855 0 0 0 -19.455 24.6l-29.656-25.42-13.175-39.525 9.453-4.786a37.82 37.82 0 0 0 20.833-33.902v-13.156h6a18.021 18.021 0 0 0 18-18v-20a18.021 18.021 0 0 0 -18-18h-6v-68a28.032 28.032 0 0 0 -28-28v1.072a8 8 0 0 0 -4-1.072h-8v6.826l-15.111 50.369a31.8 31.8 0 0 1 -30.65 22.805h-48.239a2 2 0 0 1 -2-2v-40a22.025 22.025 0 0 1 22-22h58v-16h-58a38.043 38.043 0 0 0 -38 38v40a17.993 17.993 0 0 0 8 14.959v3.041h-6a18.021 18.021 0 0 0 -18 18v20a18.021 18.021 0 0 0 18 18h6v13.459a37.792 37.792 0 0 0 21.006 33.988l9.21 4.6-13.1 39.316-3.783 3.242-68.97 26.527a38.226 38.226 0 0 0 -24.363 35.468v67.4h16v-67.4a22.131 22.131 0 0 1 14.1-20.53l26.95-10.364-14.257 12.22a8 8 0 0 0 2.236 13.5l31.928 12.774-12.112 24.222a8 8 0 0 0 .5 8.016l39.707 59.562h-33.052v-16h-16v24a8 8 0 0 0 8 8h112v40h-148a12.013 12.013 0 0 1 -12-12v-60h-16v60a28.032 28.032 0 0 0 28 28h252a8 8 0 0 0 8-8 64.065 64.065 0 0 0 -34.206-56.633l-5.794-63.73v-47.637h80v40h-24a8 8 0 0 0 -7.967 8.725l7.173 78.9c.011.124.024.247.038.37h-7.244v16h168v16h-160v16h168a8 8 0 0 0 8-8v-31.995a8 8 0 0 0 -8-8h-16.285a28.043 28.043 0 0 0 -27.715-24h-4v-44.995zm-254.021-189.268h6a2 2 0 0 1 2 2v20a2 2 0 0 1 -2 2h-6zm-144 24h-6a2 2 0 0 1 -2-2v-20a2 2 0 0 1 2-2h6zm157.182 273.365a64.061 64.061 0 0 0 -13.182-1.365h-25.052l33.537-50.3zm-10.138-93.165 4.956-1.983v11.894zm-42.83-254.407 13.693-45.641a12.019 12.019 0 0 1 10.093 11.848v36h-24.5q.379-1.09.714-2.207zm-76.053 123.344a21.881 21.881 0 0 1 -12.161-19.678v-69.459h42.239a47.734 47.734 0 0 0 35.861-16h33.9v85.156a21.9 21.9 0 0 1 -12.062 19.627l-38.574 19.533a12.057 12.057 0 0 1 -10.788.028zm43.839 85.248-25.652-17.1-12.826-8.551 11.151-33.452 14.747 7.373a28.111 28.111 0 0 0 25.172-.064l14.692-7.44 11.2 33.583zm36.428-4.385-3.332 17.5-14.663-5.5zm-53.154 12.469-16.019 6.865-3.829-20.1zm-10.993 129.531-43.05-64.575 13.924-27.847a8 8 0 0 0 -4.184-11.006l-27.736-11.094 35.49-30.419 27.608 144.941zm37.1 0h-18.761l-20.3-106.576 30.346-13.006 29.392 11.022zm16.287 0 27.608-144.941 28.092 24.078-1.237 7.418q-.069.382-.1.777v.008c0 .063-.009.127-.013.19v.033c0 .053 0 .105-.007.158v.062.127s0 .059 0 .088v.986l-18.971 7.588a8 8 0 0 0 -4.184 11.006l13.924 27.847-43.061 64.575zm93.666 56h-79.334v-40h32a48.078 48.078 0 0 1 47.333 40zm.666-246a2 2 0 0 1 2-2h28a2 2 0 0 1 2 2v22h-32zm-22.556 70 2.269-13.616a21.931 21.931 0 0 1 21.701-18.384h29.172a21.931 21.931 0 0 1 21.7 18.384l2.27 13.616zm119.415 142.181a1.99 1.99 0 0 1 -1.991 1.819h-14.868v-48h-16v48h-14.868a1.99 1.99 0 0 1 -1.991-1.819l-6.381-70.181h62.48zm79.141-174.181a8 8 0 1 1 -8 8 8.009 8.009 0 0 1 8-8zm-80 36.994v-4.994h96v4.994l-9.63 11.006h-76.74zm60 131.006a12.02 12.02 0 0 1 11.314 8h-46.628a12.02 12.02 0 0 1 11.314-8zm-12-76.148-24.37-27.852h48.74z"/></g></g></g></svg>