<svg id="Capa_1" enable-background="new 0 0 512 512" height="512" viewBox="0 0 512 512" width="512" xmlns="http://www.w3.org/2000/svg"><g><path d="m338.5 22.5 14.925 318.495h30l31.561-318.495z" fill="#db2116"/><path d="m97.014 22.5 31.562 318.495h224.849l31.561-318.495z" fill="#ff3a2f"/><path d="m421 7.5h-30v30h30c8.284 0 15-6.716 15-15s-6.716-15-15-15z" fill="#ebebeb"/><path d="m406 22.5c0-8.284-6.716-15-15-15h-300c-8.284 0-15 6.716-15 15s6.716 15 15 15h300c8.284 0 15-6.716 15-15z" fill="#fff"/><path d="m338.5 82.5 14.925 318.495h30l31.561-318.495z" fill="#db2116"/><path d="m97.014 82.5 31.562 318.495h224.849l31.561-318.495z" fill="#ff3a2f"/><path d="m421 67.5h-30v30h30c8.284 0 15-6.716 15-15s-6.716-15-15-15z" fill="#ebebeb"/><path d="m406 82.5c0-8.284-6.716-15-15-15h-300c-8.284 0-15 6.716-15 15s6.716 15 15 15h300c8.284 0 15-6.716 15-15z" fill="#fff"/><path d="m323.5 384.5v120h30c8.284 0 15-6.716 15-15v-105z" fill="#3f43bd"/><path d="m143.5 384.5v105c0 8.284 6.716 15 15 15h165c8.284 0 15-6.716 15-15v-105z" fill="#405acc"/><path d="m338.5 474.5h30c7.78 0 14.174-5.923 14.925-13.505l17.341-174.995-62.266-25.242z" fill="#405acc"/><path d="m338.5 142.5v148.257c17.498-2.964 37.763-4.758 62.266-4.758l14.22-143.5h-76.486z" fill="#db2116"/><path d="m117.18 346 11.396 114.995c.751 7.582 7.145 13.505 14.924 13.505h195c7.78 0 14.174-5.923 14.925-13.505l17.243-173.997-114.667-30z" fill="#4271db"/><path d="m384.986 142.5h-287.972l20.166 203.5c130.974 0 140.977-51.189 253.487-59.001z" fill="#ff3a2f"/><path d="m421 127.5h-30v30h30c8.284 0 15-6.716 15-15s-6.716-15-15-15z" fill="#ebebeb"/><path d="m406 142.5c0-8.284-6.716-15-15-15h-300c-8.284 0-15 6.716-15 15s6.716 15 15 15h300c8.284 0 15-6.716 15-15z" fill="#fff"/><path d="m421 105c12.406 0 22.5-10.094 22.5-22.5s-10.094-22.5-22.5-22.5h-2.192l1.486-15h.706c12.406 0 22.5-10.094 22.5-22.5s-10.094-22.5-22.5-22.5h-330c-12.406 0-22.5 10.094-22.5 22.5s10.094 22.5 22.5 22.5h.706l1.486 15h-2.192c-12.406 0-22.5 10.094-22.5 22.5s10.094 22.5 22.5 22.5h.706l1.486 15h-2.192c-12.406 0-22.5 10.094-22.5 22.5s10.094 22.5 22.5 22.5h.706l15.037 151.74c.409 4.122 4.078 7.129 8.203 6.725 4.122-.409 7.133-4.081 6.725-8.203l-14.891-150.262h298.44l-11.252 113.547c-67.952.941-103.504 15.983-137.918 30.546-35.738 15.123-69.495 29.407-138.87 29.407-2.118 0-4.137.896-5.559 2.465s-2.113 3.667-1.905 5.774l11.396 114.995c.885 8.938 6.856 16.155 14.889 18.974v8.792c0 12.406 10.094 22.5 22.5 22.5h195c12.406 0 22.5-10.094 22.5-22.5v-8.792c8.033-2.819 14.003-10.036 14.889-18.974l29.404-296.734h.706c12.406 0 22.5-10.094 22.5-22.5s-10.094-22.5-22.5-22.5h-2.192l1.486-15zm-67.5 392h-195c-4.136 0-7.5-3.364-7.5-7.5v-7.5h210v7.5c0 4.136-3.364 7.5-7.5 7.5zm22.461-36.744c-.381 3.845-3.588 6.744-7.461 6.744h-225c-3.873 0-7.08-2.899-7.461-6.744l-10.586-106.825c66.995-1.138 102.278-16.067 136.442-30.523 34.286-14.509 66.747-28.244 130.584-29.337zm-292.461-437.756c0-4.136 3.364-7.5 7.5-7.5h330c4.136 0 7.5 3.364 7.5 7.5s-3.364 7.5-7.5 7.5h-330c-4.136 0-7.5-3.364-7.5-7.5zm23.28 22.5h298.44l-1.486 15h-295.467zm-23.28 37.5c0-4.136 3.364-7.5 7.5-7.5h330c4.136 0 7.5 3.364 7.5 7.5s-3.364 7.5-7.5 7.5h-330c-4.136 0-7.5-3.364-7.5-7.5zm345 60c0 4.136-3.364 7.5-7.5 7.5h-330c-4.136 0-7.5-3.364-7.5-7.5s3.364-7.5 7.5-7.5h330c4.136 0 7.5 3.364 7.5 7.5zm-24.767-22.5h-295.466l-1.486-15h298.439z"/></g></svg>